<svg width="46" height="46" viewBox="0 0 46 46" fill="none" xmlns="http://www.w3.org/2000/svg">
<path d="M19.4063 15.0938C19.4063 14.5251 19.5749 13.9693 19.8908 13.4965C20.2067 13.0237 20.6557 12.6552 21.181 12.4376C21.7064 12.22 22.2844 12.1631 22.8421 12.274C23.3998 12.3849 23.9121 12.6587 24.3142 13.0608C24.7163 13.4629 24.9901 13.9752 25.101 14.5329C25.2119 15.0906 25.155 15.6686 24.9374 16.194C24.7198 16.7193 24.3513 17.1683 23.8785 17.4842C23.4057 17.8001 22.8499 17.9688 22.2813 17.9688C21.5188 17.9688 20.7875 17.6658 20.2483 17.1267C19.7092 16.5875 19.4063 15.8562 19.4063 15.0938ZM42.4063 23C42.4063 26.8382 41.2681 30.5902 39.1357 33.7815C37.0033 36.9729 33.9725 39.4602 30.4265 40.929C26.8804 42.3979 22.9785 42.7822 19.214 42.0334C15.4496 41.2846 11.9917 39.4363 9.27772 36.7223C6.56371 34.0083 4.71544 30.5504 3.96664 26.786C3.21785 23.0215 3.60216 19.1196 5.07097 15.5735C6.53978 12.0275 9.02713 8.99668 12.2185 6.86429C15.4098 4.73191 19.1618 3.59375 23 3.59375C28.1451 3.59946 33.0779 5.64587 36.716 9.28401C40.3541 12.9222 42.4006 17.8549 42.4063 23ZM38.0938 23C38.0938 20.0147 37.2085 17.0965 35.55 14.6144C33.8915 12.1322 31.5342 10.1976 28.7761 9.05519C26.0181 7.91278 22.9833 7.61388 20.0554 8.19627C17.1275 8.77867 14.438 10.2162 12.3271 12.3271C10.2162 14.438 8.77868 17.1275 8.19628 20.0554C7.61389 22.9833 7.91279 26.0181 9.0552 28.7761C10.1976 31.5341 12.1322 33.8915 14.6144 35.55C17.0965 37.2085 20.0147 38.0938 23 38.0938C27.0018 38.0895 30.8385 36.4979 33.6682 33.6682C36.4979 30.8385 38.0895 27.0018 38.0938 23ZM25.1563 29.5909V23.7188C25.1563 22.7656 24.7776 21.8515 24.1037 21.1776C23.4297 20.5036 22.5156 20.125 21.5625 20.125C21.0533 20.1242 20.5602 20.3037 20.1707 20.6317C19.7811 20.9596 19.5202 21.4148 19.4341 21.9167C19.348 22.4186 19.4423 22.9348 19.7003 23.3738C19.9583 23.8128 20.3634 24.1463 20.8438 24.3153V30.1875C20.8438 31.1406 21.2224 32.0547 21.8963 32.7287C22.5703 33.4026 23.4844 33.7812 24.4375 33.7812C24.9467 33.782 25.4398 33.6025 25.8293 33.2746C26.2189 32.9466 26.4798 32.4914 26.5659 31.9895C26.652 31.4876 26.5577 30.9715 26.2997 30.5325C26.0417 30.0935 25.6366 29.7599 25.1563 29.5909Z" fill="black"/>
</svg>
