<svg width="226" height="114" viewBox="0 0 226 114" fill="none" xmlns="http://www.w3.org/2000/svg">
<g clip-path="url(#clip0_4251_13222)">
<path opacity="0.2" d="M226 113.25C226 175.658 175.408 226.25 113 226.25C50.5918 226.25 0 175.658 0 113.25C0 50.8418 50.5918 0.25 113 0.25C175.408 0.25 226 50.8418 226 113.25ZM42.8536 113.25C42.8536 151.991 74.2592 183.396 113 183.396C151.741 183.396 183.146 151.991 183.146 113.25C183.146 74.5092 151.741 43.1036 113 43.1036C74.2592 43.1036 42.8536 74.5092 42.8536 113.25Z" fill="url(#paint0_angular_4251_13222)"/>
<path d="M204.528 46.9803C189.196 25.8048 166.996 10.6006 141.711 3.95824C116.426 -2.68416 89.6194 -0.353753 65.8598 10.5524C42.1002 21.4585 22.8571 40.2656 11.4094 63.7691C-0.0382204 87.2726 -2.98221 114.018 3.07909 139.449C9.14039 164.88 23.832 187.422 44.6505 203.235C65.4691 219.048 91.1265 227.154 117.251 226.17C143.376 225.186 168.351 215.175 187.922 197.841C207.493 180.508 220.448 156.925 224.58 131.11L181.492 124.213C178.956 140.059 171.003 154.536 158.99 165.176C146.977 175.816 131.646 181.961 115.61 182.565C99.5732 183.169 83.8236 178.193 71.0443 168.487C58.265 158.78 49.2467 144.943 45.526 129.332C41.8053 113.722 43.6125 97.304 50.6395 82.8766C57.6666 68.4492 69.4787 56.9046 84.0634 50.21C98.648 43.5153 115.103 42.0848 130.624 46.1622C146.145 50.2396 159.772 59.5725 169.184 72.5709L204.528 46.9803Z" fill="url(#paint1_angular_4251_13222)"/>
</g>
<defs>
<radialGradient id="paint0_angular_4251_13222" cx="0" cy="0" r="1" gradientUnits="userSpaceOnUse" gradientTransform="translate(113 113.25) rotate(-179.745) scale(148.686 169.167)">
<stop offset="0.163813" stop-color="#A8F9FF"/>
<stop offset="0.493584" stop-color="#7EF6FF"/>
<stop offset="0.621284" stop-color="#1EADEA"/>
<stop offset="0.782402" stop-color="#5BBCE2"/>
</radialGradient>
<radialGradient id="paint1_angular_4251_13222" cx="0" cy="0" r="1" gradientUnits="userSpaceOnUse" gradientTransform="translate(113 113.25) rotate(-179.745) scale(148.686 169.167)">
<stop offset="0.00841046" stop-color="#1EADEA"/>
<stop offset="0.0418543" stop-color="#5BBCE2"/>
<stop offset="0.118886" stop-color="#77D2ED"/>
<stop offset="0.222126" stop-color="#A8F9FF"/>
<stop offset="0.298755" stop-color="#89F7FF"/>
<stop offset="0.399825" stop-color="#7EF6FF"/>
</radialGradient>
<clipPath id="clip0_4251_13222">
<rect width="226" height="113" fill="white" transform="translate(0 0.25)"/>
</clipPath>
</defs>
</svg>
