<svg width="22" height="22" viewBox="0 0 22 22" fill="none" xmlns="http://www.w3.org/2000/svg">
<path d="M11.0003 16.417C11.3073 16.417 11.5647 16.313 11.7727 16.105C11.9807 15.897 12.0844 15.6399 12.0837 15.3337C12.0837 15.0267 11.9797 14.7696 11.7717 14.5623C11.5637 14.355 11.3065 14.251 11.0003 14.2503C10.6934 14.2503 10.4363 14.3543 10.229 14.5623C10.0217 14.7703 9.91772 15.0274 9.91699 15.3337C9.91699 15.6406 10.021 15.8981 10.229 16.1061C10.437 16.3141 10.6941 16.4177 11.0003 16.417ZM9.91699 12.0837H12.0837V5.58366H9.91699V12.0837ZM11.0003 21.8337C9.50171 21.8337 8.09338 21.5491 6.77533 20.98C5.45727 20.4109 4.31074 19.6392 3.33574 18.6649C2.36074 17.6899 1.58905 16.5434 1.02066 15.2253C0.45227 13.9073 0.167714 12.4989 0.166992 11.0003C0.166992 9.50171 0.451548 8.09338 1.02066 6.77533C1.58977 5.45727 2.36146 4.31074 3.33574 3.33574C4.31074 2.36074 5.45727 1.58905 6.77533 1.02066C8.09338 0.45227 9.50171 0.167714 11.0003 0.166992C12.4989 0.166992 13.9073 0.451548 15.2253 1.02066C16.5434 1.58977 17.6899 2.36146 18.6649 3.33574C19.6399 4.31074 20.412 5.45727 20.9811 6.77533C21.5502 8.09338 21.8344 9.50171 21.8337 11.0003C21.8337 12.4989 21.5491 13.9073 20.98 15.2253C20.4109 16.5434 19.6392 17.6899 18.6649 18.6649C17.6899 19.6399 16.5434 20.412 15.2253 20.9811C13.9073 21.5502 12.4989 21.8344 11.0003 21.8337ZM11.0003 19.667C13.4198 19.667 15.4691 18.8274 17.1482 17.1482C18.8274 15.4691 19.667 13.4198 19.667 11.0003C19.667 8.58088 18.8274 6.53158 17.1482 4.85241C15.4691 3.17324 13.4198 2.33366 11.0003 2.33366C8.58088 2.33366 6.53158 3.17324 4.85241 4.85241C3.17324 6.53158 2.33366 8.58088 2.33366 11.0003C2.33366 13.4198 3.17324 15.4691 4.85241 17.1482C6.53158 18.8274 8.58088 19.667 11.0003 19.667Z" fill="#34B7C1"/>
</svg>
