<svg width="18" height="18" viewBox="0 0 18 18" fill="none" xmlns="http://www.w3.org/2000/svg">
<path d="M9.15948 13.1338C9.39371 13.1338 9.59019 13.0544 9.74892 12.8957C9.90764 12.7369 9.98673 12.5407 9.98618 12.3071C9.98618 12.0728 9.90681 11.8766 9.74809 11.7185C9.58936 11.5603 9.39316 11.4809 9.15948 11.4804C8.92526 11.4804 8.72905 11.5597 8.57088 11.7185C8.41271 11.8772 8.33335 12.0734 8.33279 12.3071C8.33279 12.5413 8.41216 12.7378 8.57088 12.8965C8.72961 13.0552 8.92581 13.1343 9.15948 13.1338ZM8.33279 9.827H9.98618V4.86685H8.33279V9.827ZM9.15948 17.2672C8.0159 17.2672 6.9412 17.0501 5.93539 16.6158C4.92958 16.1815 4.05467 15.5926 3.31065 14.8491C2.56663 14.1051 1.97775 13.2302 1.54401 12.2244C1.11027 11.2186 0.893129 10.1439 0.892578 9.00031C0.892578 7.85672 1.10972 6.78202 1.54401 5.77621C1.9783 4.7704 2.56718 3.89549 3.31065 3.15147C4.05467 2.40745 4.92958 1.81857 5.93539 1.38483C6.9412 0.951094 8.0159 0.73395 9.15948 0.733398C10.3031 0.733398 11.3778 0.950543 12.3836 1.38483C13.3894 1.81912 14.2643 2.408 15.0083 3.15147C15.7523 3.89549 16.3415 4.7704 16.7758 5.77621C17.2101 6.78202 17.4269 7.85672 17.4264 9.00031C17.4264 10.1439 17.2092 11.2186 16.775 12.2244C16.3407 13.2302 15.7518 14.1051 15.0083 14.8491C14.2643 15.5932 13.3894 16.1823 12.3836 16.6166C11.3778 17.0509 10.3031 17.2678 9.15948 17.2672ZM9.15948 15.6138C11.0058 15.6138 12.5696 14.9731 13.851 13.6918C15.1323 12.4104 15.773 10.8466 15.773 9.00031C15.773 7.15403 15.1323 5.59021 13.851 4.30884C12.5696 3.02746 11.0058 2.38678 9.15948 2.38678C7.31321 2.38678 5.74939 3.02746 4.46802 4.30884C3.18664 5.59021 2.54596 7.15403 2.54596 9.00031C2.54596 10.8466 3.18664 12.4104 4.46802 13.6918C5.74939 14.9731 7.31321 15.6138 9.15948 15.6138Z" fill="#A44C4C"/>
</svg>
