<svg width="22" height="22" viewBox="0 0 22 22" fill="none" xmlns="http://www.w3.org/2000/svg">
<path d="M10.2728 2.10237C10.1009 1.93052 9.86774 1.83398 9.62467 1.83398C9.38161 1.83398 9.14849 1.93052 8.97659 2.10237L6.22659 4.85237C6.05474 5.02427 5.9582 5.25739 5.9582 5.50046C5.9582 5.74352 6.05474 5.97664 6.22659 6.14854L8.97659 8.89854C9.14948 9.06552 9.38103 9.15791 9.62138 9.15582C9.86172 9.15373 10.0916 9.05733 10.2616 8.88737C10.4315 8.71741 10.528 8.4875 10.53 8.24716C10.5321 8.00681 10.4397 7.77526 10.2728 7.60237L9.08751 6.41712H10.5413C13.7937 6.41712 16.4997 9.12312 16.4997 12.3755C16.4997 15.6278 13.7937 18.3338 10.5413 18.3338C7.28901 18.3338 4.58301 15.6278 4.58301 12.3755C4.58301 12.1323 4.48643 11.8992 4.31452 11.7273C4.14262 11.5554 3.90946 11.4588 3.66634 11.4588C3.42323 11.4588 3.19007 11.5554 3.01816 11.7273C2.84625 11.8992 2.74967 12.1323 2.74967 12.3755C2.74967 16.6398 6.27701 20.1671 10.5413 20.1671C14.8057 20.1671 18.333 16.6398 18.333 12.3755C18.333 8.11112 14.8057 4.58379 10.5413 4.58379H9.08751L10.2728 3.39854C10.4446 3.22664 10.5411 2.99352 10.5411 2.75046C10.5411 2.50739 10.4446 2.27427 10.2728 2.10237Z" fill="#8E8F8F"/>
</svg>
