<svg width="34" height="33" viewBox="0 0 34 33" fill="none" xmlns="http://www.w3.org/2000/svg">
<path d="M29.5858 10.5302H2.50729C2.10831 10.5302 1.72567 10.3717 1.44355 10.0896C1.16142 9.80747 1.00293 9.42483 1.00293 9.02584C1.00293 8.62686 1.16142 8.24422 1.44355 7.9621C1.72567 7.67998 2.10831 7.52148 2.50729 7.52148H29.5858C29.9848 7.52148 30.3674 7.67998 30.6495 7.9621C30.9316 8.24422 31.0901 8.62686 31.0901 9.02584C31.0901 9.42483 30.9316 9.80747 30.6495 10.0896C30.3674 10.3717 29.9848 10.5302 29.5858 10.5302ZM24.5712 17.5506H7.52183C7.12284 17.5506 6.7402 17.3921 6.45808 17.1099C6.17596 16.8278 6.01746 16.4452 6.01746 16.0462C6.01746 15.6472 6.17596 15.2646 6.45808 14.9825C6.7402 14.7003 7.12284 14.5418 7.52183 14.5418H24.5712C24.9702 14.5418 25.3529 14.7003 25.635 14.9825C25.9171 15.2646 26.0756 15.6472 26.0756 16.0462C26.0756 16.4452 25.9171 16.8278 25.635 17.1099C25.3529 17.3921 24.9702 17.5506 24.5712 17.5506ZM18.5538 24.5709H13.5393C13.1403 24.5709 12.7576 24.4124 12.4755 24.1303C12.1934 23.8482 12.0349 23.4655 12.0349 23.0665C12.0349 22.6676 12.1934 22.2849 12.4755 22.0028C12.7576 21.7207 13.1403 21.5622 13.5393 21.5622H18.5538C18.9528 21.5622 19.3354 21.7207 19.6175 22.0028C19.8997 22.2849 20.0582 22.6676 20.0582 23.0665C20.0582 23.4655 19.8997 23.8482 19.6175 24.1303C19.3354 24.4124 18.9528 24.5709 18.5538 24.5709Z" fill="black"/>
<circle cx="27.3963" cy="6.26152" r="5.4793" fill="#A44C4C"/>
</svg>
