<svg width="24" height="25" viewBox="0 0 24 25" fill="none" xmlns="http://www.w3.org/2000/svg">
<g clip-path="url(#clip0_4334_655)">
<path d="M13.2992 3.64844L21.9332 18.6024C22.0648 18.8305 22.1341 19.0891 22.1341 19.3524C22.1341 19.6157 22.0648 19.8744 21.9332 20.1024C21.8015 20.3304 21.6122 20.5198 21.3842 20.6515C21.1561 20.7831 20.8975 20.8524 20.6342 20.8524H3.36617C3.10287 20.8524 2.84421 20.7831 2.61619 20.6515C2.38816 20.5198 2.19881 20.3304 2.06716 20.1024C1.93552 19.8744 1.86621 19.6157 1.86621 19.3524C1.86621 19.0891 1.93552 18.8305 2.06717 18.6024L10.7012 3.64844C11.2782 2.64844 12.7212 2.64844 13.2992 3.64844ZM12.0002 5.39844L4.23217 18.8524H19.7682L12.0002 5.39844ZM12.0002 15.5004C12.2654 15.5004 12.5197 15.6058 12.7073 15.7933C12.8948 15.9809 13.0002 16.2352 13.0002 16.5004C13.0002 16.7657 12.8948 17.02 12.7073 17.2075C12.5197 17.3951 12.2654 17.5004 12.0002 17.5004C11.735 17.5004 11.4806 17.3951 11.2931 17.2075C11.1055 17.02 11.0002 16.7657 11.0002 16.5004C11.0002 16.2352 11.1055 15.9809 11.2931 15.7933C11.4806 15.6058 11.735 15.5004 12.0002 15.5004ZM12.0002 8.50044C12.2654 8.50044 12.5197 8.60579 12.7073 8.79333C12.8948 8.98087 13.0002 9.23522 13.0002 9.50044V13.5004C13.0002 13.7657 12.8948 14.02 12.7073 14.2075C12.5197 14.3951 12.2654 14.5004 12.0002 14.5004C11.735 14.5004 11.4806 14.3951 11.2931 14.2075C11.1055 14.02 11.0002 13.7657 11.0002 13.5004V9.50044C11.0002 9.23522 11.1055 8.98087 11.2931 8.79333C11.4806 8.60579 11.735 8.50044 12.0002 8.50044Z" fill="#80848F"/>
</g>
<defs>
<clipPath id="clip0_4334_655">
<rect y="0.5" width="24" height="24" fill="white"/>
</clipPath>
</defs>
</svg>
