<svg width="24" height="25" viewBox="0 0 24 25" fill="none" xmlns="http://www.w3.org/2000/svg">
<path d="M20.3552 19.9551V20.8886C20.3546 21.0024 20.3317 21.115 20.2876 21.2199C20.2434 21.3248 20.1791 21.42 20.0981 21.5C20.0171 21.58 19.9212 21.6432 19.8158 21.686C19.7103 21.7289 19.5975 21.7505 19.4837 21.7496H3.73966C3.62584 21.7506 3.51296 21.729 3.40749 21.6862C3.30203 21.6434 3.20605 21.5801 3.12508 21.5001C3.04411 21.4202 2.97973 21.325 2.93564 21.22C2.89155 21.1151 2.86862 21.0025 2.86816 20.8886V10.8346C2.86816 10.3576 3.25666 9.97363 3.73966 9.97363H10.4517M20.3552 16.5926V15.1311H20.8452C20.8829 15.1312 20.9202 15.1238 20.9551 15.1094C20.9899 15.095 21.0216 15.0739 21.0483 15.0472C21.0749 15.0206 21.0961 14.9889 21.1105 14.954C21.1249 14.9192 21.1322 14.8818 21.1322 14.8441V12.0551C21.1322 11.8961 21.0042 11.7681 20.8452 11.7681H20.3552" stroke="#80848F" stroke-linecap="round" stroke-linejoin="round"/>
<path d="M12.7104 9.9745H19.4839C19.5977 9.97365 19.7106 9.99526 19.816 10.0381C19.9215 10.0809 20.0174 10.1442 20.0984 10.2241C20.1793 10.3041 20.2437 10.3993 20.2878 10.5042C20.3319 10.6091 20.3549 10.7217 20.3554 10.8355V11.7685M10.3854 6.602H8.10842C7.95746 6.60233 7.80793 6.57283 7.66841 6.5152C7.52888 6.45757 7.40212 6.37294 7.2954 6.26617C7.18868 6.15941 7.1041 6.03261 7.04653 5.89306C6.98896 5.75351 6.95953 5.60396 6.95992 5.453V4.3985C6.95959 4.24759 6.98907 4.09809 7.04668 3.9586C7.10428 3.81911 7.18886 3.69237 7.29558 3.58566C7.40229 3.47894 7.52903 3.39436 7.66852 3.33676C7.80801 3.27916 7.95751 3.24967 8.10842 3.25H15.0534C15.2043 3.24967 15.3538 3.27916 15.4933 3.33676C15.6328 3.39436 15.7596 3.47894 15.8663 3.58566C15.973 3.69237 16.0576 3.81911 16.1152 3.9586C16.1728 4.09809 16.2023 4.24759 16.2019 4.3985V5.4535C16.2023 5.60442 16.1728 5.75391 16.1152 5.8934C16.0576 6.0329 15.973 6.15964 15.8663 6.26635C15.7596 6.37306 15.6328 6.45765 15.4933 6.51525C15.3538 6.57285 15.2043 6.60233 15.0534 6.602H12.7764M20.3554 16.5925H20.8454C21.0044 16.5925 21.1324 16.7205 21.1324 16.8795V19.6685C21.1325 19.7062 21.1251 19.7436 21.1107 19.7784C21.0963 19.8133 21.0752 19.8449 21.0485 19.8716C21.0218 19.8983 20.9902 19.9194 20.9553 19.9338C20.9205 19.9482 20.8831 19.9556 20.8454 19.9555H20.3554M5.20692 11.605H18.0169C18.1759 11.605 18.3039 11.733 18.3039 11.8925V19.832C18.304 19.8697 18.2966 19.9071 18.2822 19.9419C18.2678 19.9768 18.2467 20.0084 18.22 20.0351C18.1933 20.0618 18.1617 20.0829 18.1268 20.0973C18.092 20.1117 18.0546 20.1191 18.0169 20.119H5.20692C5.16921 20.1191 5.13186 20.1117 5.09701 20.0973C5.06216 20.0829 5.0305 20.0618 5.00384 20.0351C4.97717 20.0084 4.95603 19.9768 4.94164 19.9419C4.92724 19.9071 4.91986 19.8697 4.91992 19.832V11.892C4.91992 11.733 5.04792 11.605 5.20692 11.605Z" stroke="#80848F" stroke-linecap="round" stroke-linejoin="round"/>
<path d="M10.4507 9.97537C10.4074 9.85166 10.3854 9.72146 10.3857 9.59037V5.54987C10.3854 5.399 10.4149 5.24954 10.4725 5.11008C10.53 4.97063 10.6146 4.84391 10.7212 4.7372C10.8279 4.63049 10.9546 4.5459 11.094 4.48827C11.2334 4.43064 11.3829 4.40111 11.5337 4.40137H11.6277C11.7787 4.40104 11.9282 4.43052 12.0676 4.48812C12.2071 4.54572 12.3339 4.63031 12.4406 4.73702C12.5473 4.84374 12.6319 4.97048 12.6895 5.10997C12.7471 5.24946 12.7766 5.39895 12.7762 5.54987V9.59037C12.7762 9.72537 12.7532 9.85487 12.7107 9.97537M10.4517 9.97487H12.7097" stroke="#80848F" stroke-linecap="round" stroke-linejoin="round"/>
</svg>
