<svg width="22" height="20" viewBox="0 0 22 20" fill="none" xmlns="http://www.w3.org/2000/svg">
<path fill-rule="evenodd" clip-rule="evenodd" d="M7.08766 1.81348H15.3527C18.3626 1.81348 20.0618 3.40812 20.0706 6.21963V13.9407C20.0706 16.7514 18.3626 18.3469 15.3527 18.3469H7.08766C4.07777 18.3469 2.37061 16.7514 2.37061 13.9407V6.21963C2.37061 3.40812 4.07777 1.81348 7.08766 1.81348ZM11.2641 14.9246C11.6455 14.9246 11.9632 14.66 11.9986 14.3046V5.88081C12.034 5.62454 11.9021 5.36744 11.6632 5.22774C11.4145 5.0872 11.1136 5.0872 10.8755 5.22774C10.6357 5.36744 10.5038 5.62454 10.5295 5.88081V14.3046C10.5746 14.66 10.8924 14.9246 11.2641 14.9246ZM15.3359 14.9245C15.7076 14.9245 16.0254 14.6599 16.0705 14.3045V11.593C16.0962 11.3276 15.9643 11.0804 15.7245 10.9399C15.4864 10.7994 15.1855 10.7994 14.9377 10.9399C14.6979 11.0804 14.566 11.3276 14.6014 11.593V14.3045C14.6368 14.6599 14.9545 14.9245 15.3359 14.9245ZM7.87448 14.3046C7.83908 14.66 7.52137 14.9246 7.13993 14.9246C6.75938 14.9246 6.44078 14.66 6.40626 14.3046V8.59227C6.37971 8.33518 6.51158 8.07974 6.75141 7.9392C6.98948 7.79867 7.29127 7.79867 7.53022 7.9392C7.76828 8.07974 7.90192 8.33518 7.87448 8.59227V14.3046Z" fill="#80848F"/>
</svg>
