<svg width="24" height="25" viewBox="0 0 24 25" fill="none" xmlns="http://www.w3.org/2000/svg">
<g clip-path="url(#clip0_4334_595)">
<path d="M10 3.99939C10 3.78328 10.0702 3.57603 10.1953 3.42322C10.3203 3.27042 10.4899 3.18457 10.6667 3.18457H13.3333C13.5101 3.18457 13.6797 3.27042 13.8047 3.42322C13.9298 3.57603 14 3.78328 14 3.99939C14 4.21549 13.9298 4.42274 13.8047 4.57555C13.6797 4.72835 13.5101 4.8142 13.3333 4.8142H10.6667C10.4899 4.8142 10.3203 4.72835 10.1953 4.57555C10.0702 4.42274 10 4.21549 10 3.99939Z" fill="#80848F"/>
<path fill-rule="evenodd" clip-rule="evenodd" d="M18.929 8.39089C18.6605 8.56504 18.312 8.70437 17.8918 8.81742C17.9722 9.49629 17.8797 10.1815 17.6202 10.8291C17.3608 11.4767 16.9401 12.0723 16.3853 12.5775C15.8305 13.0828 15.1538 13.4865 14.3988 13.7629C13.6437 14.0392 12.827 14.1819 12.0012 14.1819C11.1753 14.1819 10.3586 14.0392 9.60355 13.7629C8.8485 13.4865 8.17181 13.0828 7.617 12.5775C7.06219 12.0723 6.64154 11.4767 6.38209 10.8291C6.12264 10.1815 6.03015 9.49629 6.11054 8.81742C5.69031 8.70437 5.34185 8.56504 5.07403 8.39089C4.7263 8.16479 4.49325 7.86292 4.46588 7.49994C4.43998 7.16324 4.60127 6.87725 4.76255 6.6756C4.92177 6.4846 5.11083 6.3118 5.32483 6.16169C5.42841 6.08652 5.53051 6.01992 5.62521 5.96186C5.59709 5.83659 5.56602 5.68505 5.53495 5.50967C5.40388 4.7394 5.3396 3.96237 5.34259 3.18453C5.34259 2.99265 5.44173 2.84966 5.4876 2.78917C5.5453 2.71278 5.61337 2.6474 5.67552 2.59484C5.79907 2.48791 5.95888 2.37914 6.13422 2.27464C6.48934 2.06199 6.97764 1.82306 7.55767 1.5994C8.71405 1.15332 10.3025 0.740234 12.0012 0.740234C13.7006 0.740234 15.2883 1.15393 16.4447 1.5994C16.9433 1.78779 17.4198 2.01383 17.8681 2.27464C18.0434 2.37914 18.2033 2.48852 18.3268 2.59484C18.389 2.6474 18.457 2.71278 18.5147 2.78917C18.5606 2.84966 18.6597 2.99265 18.6597 3.18453C18.6597 4.16347 18.5636 4.95665 18.4674 5.50967C18.4363 5.68505 18.4052 5.83659 18.3771 5.96186C18.4718 6.01992 18.5747 6.08652 18.6782 6.16169C18.8632 6.29551 19.0748 6.46967 19.2398 6.6756C19.4018 6.87725 19.5623 7.16324 19.5372 7.50055C19.5098 7.86292 19.2768 8.16479 18.929 8.39089ZM6.82375 3.37885C6.83485 4.20258 6.91771 4.86865 6.99983 5.33429C7.01907 5.44428 7.0383 5.54206 7.05606 5.62883H16.9463C16.9648 5.54206 16.9833 5.44367 17.0025 5.33429C17.0839 4.86865 17.1675 4.20258 17.1786 3.37885C17.121 3.33864 17.0615 3.30032 17.0003 3.26397C16.7332 3.10448 16.3278 2.90344 15.8187 2.70728C14.7955 2.31253 13.4246 1.96238 12.0012 1.96238C10.5777 1.96238 9.20678 2.31253 8.18358 2.70728C7.67457 2.90344 7.26913 3.10448 7.00279 3.26336C6.94128 3.30009 6.88155 3.33883 6.82375 3.37946M6.66542 6.85098L6.66321 6.8522C6.53551 6.92248 6.41321 6.99921 6.29698 7.08196C6.16529 7.17729 6.06023 7.27017 5.99661 7.35084C5.98147 7.36898 5.96787 7.38797 5.95592 7.40767C5.96639 7.41556 5.97725 7.42311 5.98847 7.43028C6.09945 7.50238 6.33767 7.6081 6.8023 7.71259C6.89404 7.73337 6.99243 7.75292 7.09749 7.77248L7.10415 7.7737C7.47555 7.84153 7.93277 7.90203 8.48987 7.94969C9.27928 8.01752 10.2729 8.06213 11.5143 8.0719L12.0012 8.07313C14.3886 8.07313 15.9327 7.9503 16.8989 7.7737L16.9048 7.77248C17.0106 7.75292 17.109 7.73337 17.2008 7.71259C17.6646 7.60871 17.9036 7.50238 18.0139 7.43028C18.0251 7.42311 18.0359 7.41556 18.0464 7.40767C18.0347 7.38799 18.0213 7.369 18.0065 7.35084C17.9204 7.25096 17.8192 7.1606 17.7053 7.08196C17.5894 6.99922 17.4673 6.92248 17.3399 6.8522L17.3369 6.85098H6.66542ZM11.7999 9.29527C13.7546 9.29527 15.2698 9.20972 16.4313 9.06062C16.4695 9.55884 16.3841 10.0583 16.1804 10.5282C15.9766 10.9982 15.6588 11.4289 15.2464 11.7939C14.834 12.1588 14.3357 12.4504 13.7821 12.6507C13.2284 12.851 12.6311 12.9558 12.0267 12.9586C11.4223 12.9615 10.8236 12.8624 10.2672 12.6674C9.71078 12.4724 9.20846 12.1856 8.79101 11.8246C8.37355 11.4636 8.04975 11.0359 7.83946 10.5679C7.62916 10.0999 7.5368 9.60134 7.56803 9.10279C8.65042 9.22622 10.0376 9.29527 11.7999 9.29527ZM6.14014 20.8305C6.10158 21.0579 6.0823 21.2872 6.08243 21.5168V22.1278C6.08251 22.2622 6.029 22.3928 5.93017 22.4995C5.83134 22.6062 5.6927 22.683 5.5357 22.718C5.37869 22.7531 5.21208 22.7445 5.06162 22.6934C4.91116 22.6424 4.78525 22.5519 4.70336 22.4358C4.20474 22.6592 3.62126 22.7159 3.07349 22.5941L1.64412 22.2775C1.07574 22.1515 0.591223 21.8442 0.297097 21.4232C0.00297121 21.0022 -0.0766801 20.502 0.0756562 20.0325L0.649773 18.2616C0.802181 17.792 1.17417 17.3917 1.68391 17.1486C2.19365 16.9056 2.79941 16.8397 3.36795 16.9655L4.79732 17.2814C5.2945 17.3914 5.70733 17.6328 5.99439 17.9481C6.67927 17.1607 7.58144 16.5194 8.62615 16.0773C9.67087 15.6353 10.8281 15.4051 12.0019 15.406C13.1751 15.4054 14.3316 15.6355 15.3758 16.0773C16.4199 16.5192 17.3217 17.16 18.0065 17.9469C18.3038 17.6211 18.7248 17.387 19.202 17.282L20.6314 16.9661C21.1999 16.8403 21.8055 16.9061 22.3152 17.149C22.825 17.3919 23.197 17.7921 23.3496 18.2616L23.9244 20.0331C23.9999 20.2656 24.0191 20.5082 23.981 20.7469C23.9429 20.9856 23.8482 21.2157 23.7025 21.4242C23.5567 21.6327 23.3626 21.8154 23.1313 21.9619C22.9 22.1084 22.6361 22.2159 22.3545 22.2782L20.9259 22.5941C20.3791 22.716 19.7965 22.66 19.2982 22.4377C19.2161 22.5535 19.09 22.6439 18.9395 22.6946C18.7889 22.7454 18.6224 22.7538 18.4655 22.7186C18.3086 22.6833 18.1701 22.6063 18.0715 22.4995C17.9729 22.3928 17.9196 22.2621 17.9199 22.1278V21.5168C17.92 21.2872 17.9007 21.0579 17.8622 20.8305L14.0121 21.683C13.8333 21.9989 13.5492 22.2662 13.193 22.4535C12.8368 22.6408 12.4234 22.7402 12.0012 22.7402C11.5789 22.7402 11.1655 22.6408 10.8093 22.4535C10.4531 22.2662 10.169 21.9989 9.99027 21.683L6.14014 20.8305ZM9.87042 20.3906C9.96972 20.112 10.1475 19.8568 10.3893 19.6459C10.6311 19.4351 10.9299 19.2746 11.2613 19.1776V16.6661C10.2236 16.7744 9.23907 17.1077 8.4078 17.6321C7.57654 18.1565 6.92817 18.8534 6.52855 19.6518L9.87042 20.3906ZM17.4738 19.6512C17.0741 18.8529 16.4256 18.1562 15.5944 17.6319C14.7631 17.1076 13.7787 16.7744 12.741 16.6661V19.177C13.4098 19.3725 13.9321 19.8247 14.1319 20.3912L17.4738 19.6512ZM19.0622 19.2112C19.037 19.1337 19.0306 19.0528 19.0433 18.9732C19.0559 18.8937 19.0874 18.8169 19.136 18.7474C19.1846 18.6779 19.2493 18.617 19.3263 18.5681C19.4034 18.5192 19.4914 18.4834 19.5853 18.4626L21.0147 18.1461C21.2041 18.1043 21.4059 18.1263 21.5757 18.2073C21.7455 18.2883 21.8694 18.4217 21.9202 18.5781L22.4951 20.349C22.5202 20.4265 22.5267 20.5074 22.514 20.5869C22.5014 20.6665 22.4698 20.7433 22.4213 20.8128C22.3727 20.8823 22.308 20.9432 22.2309 20.9921C22.1539 21.0409 22.0659 21.0768 21.972 21.0976L20.5426 21.4141C20.4487 21.4349 20.3508 21.4402 20.2544 21.4297C20.158 21.4192 20.0651 21.3931 19.9809 21.3529C19.8968 21.3127 19.823 21.2593 19.7639 21.1955C19.7047 21.1318 19.6614 21.059 19.6363 20.9815L19.0622 19.2112ZM2.98545 18.1461C2.89155 18.1252 2.79358 18.1198 2.69715 18.1302C2.60073 18.1406 2.50773 18.1666 2.42349 18.2068C2.33924 18.2469 2.2654 18.3003 2.20619 18.3641C2.14698 18.4278 2.10356 18.5005 2.07841 18.5781L1.50429 20.3484C1.47911 20.4259 1.47267 20.5068 1.48534 20.5863C1.498 20.6659 1.52952 20.7426 1.57809 20.8122C1.62666 20.8817 1.69134 20.9426 1.76843 20.9915C1.84551 21.0403 1.9335 21.0762 2.02736 21.097L3.45673 21.4135C3.55059 21.4343 3.64848 21.4396 3.74482 21.4291C3.84117 21.4187 3.93407 21.3927 4.01823 21.3525C4.1024 21.3124 4.17616 21.259 4.23533 21.1953C4.29449 21.1317 4.33788 21.059 4.36304 20.9815L4.93715 19.2106C4.96244 19.133 4.96897 19.0521 4.95636 18.9724C4.94375 18.8928 4.91225 18.816 4.86367 18.7464C4.81509 18.6768 4.75038 18.6158 4.67323 18.5669C4.59609 18.518 4.50803 18.4822 4.41409 18.4614L2.98545 18.1461ZM12.741 20.9057C12.741 21.0678 12.6631 21.2232 12.5243 21.3378C12.3856 21.4524 12.1974 21.5168 12.0012 21.5168C11.8049 21.5168 11.6168 21.4524 11.478 21.3378C11.3393 21.2232 11.2613 21.0678 11.2613 20.9057C11.2613 20.7436 11.3393 20.5882 11.478 20.4736C11.6168 20.359 11.8049 20.2946 12.0012 20.2946C12.1974 20.2946 12.3856 20.359 12.5243 20.4736C12.6631 20.5882 12.741 20.7436 12.741 20.9057Z" fill="#80848F"/>
</g>
<defs>
<clipPath id="clip0_4334_595">
<rect y="0.5" width="24" height="24" fill="white"/>
</clipPath>
</defs>
</svg>
