<svg width="24" height="25" viewBox="0 0 24 25" fill="none" xmlns="http://www.w3.org/2000/svg">
<rect x="0.7" y="1.2" width="22.6" height="22.6" rx="7.3" stroke="#80848F" stroke-width="1.4"/>
<path fill-rule="evenodd" clip-rule="evenodd" d="M8 6.5C8 6.23478 8.10536 5.98043 8.29289 5.79289C8.48043 5.60536 8.73478 5.5 9 5.5H15C15.2652 5.5 15.5196 5.60536 15.7071 5.79289C15.8946 5.98043 16 6.23478 16 6.5C16 6.76522 15.8946 7.01957 15.7071 7.20711C15.5196 7.39464 15.2652 7.5 15 7.5H10V11.5H15C15.2652 11.5 15.5196 11.6054 15.7071 11.7929C15.8946 11.9804 16 12.2348 16 12.5C16 12.7652 15.8946 13.0196 15.7071 13.2071C15.5196 13.3946 15.2652 13.5 15 13.5H10V18.5C10 18.7652 9.89464 19.0196 9.70711 19.2071C9.51957 19.3946 9.26522 19.5 9 19.5C8.73478 19.5 8.48043 19.3946 8.29289 19.2071C8.10536 19.0196 8 18.7652 8 18.5V6.5Z" fill="#80848F"/>
</svg>
