<svg width="24" height="25" viewBox="0 0 24 25" fill="none" xmlns="http://www.w3.org/2000/svg">
<path d="M14.844 20.5H6.5C5.121 20.5 4 19.379 4 18C4 16.621 5.121 15.5 6.5 15.5H13.5C15.43 15.5 17 13.93 17 12C17 10.07 15.43 8.5 13.5 8.5H8.639C8.27175 9.21988 7.81697 9.89164 7.285 10.5H13.5C14.327 10.5 15 11.173 15 12C15 12.827 14.327 13.5 13.5 13.5H6.5C4.019 13.5 2 15.519 2 18C2 20.481 4.019 22.5 6.5 22.5H16.093C15.6023 21.8828 15.1833 21.2118 14.844 20.5ZM5 2.5C3.346 2.5 2 3.846 2 5.5C2 8.688 5 10.5 5 10.5C5 10.5 8 8.687 8 5.5C8 3.846 6.654 2.5 5 2.5ZM5 7C4.80295 6.99993 4.60785 6.96106 4.42582 6.88559C4.2438 6.81012 4.07842 6.69954 3.93913 6.56016C3.79984 6.42078 3.68937 6.25533 3.61403 6.07325C3.53868 5.89118 3.49993 5.69605 3.5 5.499C3.50007 5.30195 3.53894 5.10685 3.61441 4.92482C3.68988 4.7428 3.80046 4.57742 3.93984 4.43813C4.07922 4.29884 4.24467 4.18837 4.42675 4.11303C4.60882 4.03768 4.80395 3.99893 5.001 3.999C5.39896 3.99913 5.78056 4.15735 6.06187 4.43884C6.34317 4.72033 6.50113 5.10204 6.501 5.5C6.50087 5.89796 6.34265 6.27956 6.06116 6.56087C5.77967 6.84217 5.39796 7.00013 5 7Z" fill="#80848F"/>
<path d="M19 14.5C17.346 14.5 16 15.846 16 17.5C16 20.688 19 22.5 19 22.5C19 22.5 22 20.687 22 17.5C22 15.846 20.654 14.5 19 14.5ZM19 19C18.803 18.9999 18.6078 18.9611 18.4258 18.8856C18.2438 18.8101 18.0784 18.6995 17.9391 18.5602C17.7998 18.4208 17.6894 18.2553 17.614 18.0733C17.5387 17.8912 17.4999 17.696 17.5 17.499C17.5001 17.302 17.5389 17.1068 17.6144 16.9248C17.6899 16.7428 17.8005 16.5774 17.9398 16.4381C18.0792 16.2988 18.2447 16.1884 18.4267 16.113C18.6088 16.0377 18.804 15.9989 19.001 15.999C19.399 15.9991 19.7806 16.1573 20.0619 16.4388C20.3432 16.7203 20.5011 17.102 20.501 17.5C20.5009 17.898 20.3427 18.2796 20.0612 18.5609C19.7797 18.8422 19.398 19.0001 19 19Z" fill="#80848F"/>
</svg>
