<svg width="24" height="25" viewBox="0 0 24 25" fill="none" xmlns="http://www.w3.org/2000/svg">
<g clip-path="url(#clip0_4265_520)">
<path fill-rule="evenodd" clip-rule="evenodd" d="M12 4.5C13.8565 4.5 15.637 5.25231 16.9497 6.59144C18.2625 7.93056 19 9.7468 19 11.6406C19 14.0795 17.6964 16.0757 16.3229 17.5078C15.6365 18.2154 14.8877 18.8571 14.086 19.4247L13.7547 19.6548L13.5991 19.7603L13.3059 19.9507L13.0446 20.1133L12.721 20.3053C12.5013 20.4329 12.2528 20.5 12 20.5C11.7472 20.5 11.4987 20.4329 11.279 20.3053L10.9554 20.1133L10.551 19.8595L10.4017 19.7603L10.0828 19.5437C9.21787 18.9465 8.41216 18.2647 7.67711 17.5078C6.30356 16.0749 5 14.0795 5 11.6406C5 9.7468 5.7375 7.93056 7.05025 6.59144C8.36301 5.25231 10.1435 4.5 12 4.5ZM12 6.0868C10.556 6.0868 9.17123 6.67193 8.1502 7.71348C7.12916 8.75502 6.55556 10.1677 6.55556 11.6406C6.55556 13.4829 7.54489 15.0998 8.78856 16.3978C9.32337 16.95 9.90135 17.4568 10.5168 17.9132L10.873 18.1719C10.9881 18.2536 11.0986 18.3298 11.2051 18.4004L11.5084 18.5987L11.7752 18.7646L12 18.8986L12.3539 18.6852L12.6393 18.5027C12.791 18.4044 12.9543 18.2941 13.127 18.1719L13.4832 17.9132C14.0986 17.4568 14.6766 16.95 15.2114 16.3978C16.4551 15.1006 17.4444 13.4829 17.4444 11.6406C17.4444 10.1677 16.8708 8.75502 15.8498 7.71348C14.8288 6.67193 13.444 6.0868 12 6.0868ZM12 8.46701C12.8251 8.46701 13.6164 8.80137 14.1999 9.39653C14.7833 9.9917 15.1111 10.7989 15.1111 11.6406C15.1111 12.4823 14.7833 13.2895 14.1999 13.8847C13.6164 14.4799 12.8251 14.8142 12 14.8142C11.1749 14.8142 10.3836 14.4799 9.80011 13.8847C9.21667 13.2895 8.88889 12.4823 8.88889 11.6406C8.88889 10.7989 9.21667 9.9917 9.80011 9.39653C10.3836 8.80137 11.1749 8.46701 12 8.46701ZM12 10.0538C11.5874 10.0538 11.1918 10.221 10.9001 10.5186C10.6083 10.8162 10.4444 11.2198 10.4444 11.6406C10.4444 12.0615 10.6083 12.4651 10.9001 12.7627C11.1918 13.0602 11.5874 13.2274 12 13.2274C12.4126 13.2274 12.8082 13.0602 13.0999 12.7627C13.3917 12.4651 13.5556 12.0615 13.5556 11.6406C13.5556 11.2198 13.3917 10.8162 13.0999 10.5186C12.8082 10.221 12.4126 10.0538 12 10.0538Z" fill="#80848F"/>
</g>
<rect x="0.7" y="1.2" width="22.6" height="22.6" rx="7.3" stroke="#80848F" stroke-width="1.4"/>
<defs>
<clipPath id="clip0_4265_520">
<rect y="0.5" width="24" height="24" rx="8" fill="white"/>
</clipPath>
</defs>
</svg>
