<svg width="24" height="25" viewBox="0 0 24 25" fill="none" xmlns="http://www.w3.org/2000/svg">
<path d="M9 21.5H15M9 21.5V16.5M9 21.5H3.6C3.44087 21.5 3.28826 21.4368 3.17574 21.3243C3.06321 21.2117 3 21.0591 3 20.9V17.1C3 16.9409 3.06321 16.7883 3.17574 16.6757C3.28826 16.5632 3.44087 16.5 3.6 16.5H9M15 21.5V9.5M15 21.5H20.4C20.5591 21.5 20.7117 21.4368 20.8243 21.3243C20.9368 21.2117 21 21.0591 21 20.9V4.1C21 3.94087 20.9368 3.78826 20.8243 3.67574C20.7117 3.56321 20.5591 3.5 20.4 3.5H15.6C15.4409 3.5 15.2883 3.56321 15.1757 3.67574C15.0632 3.78826 15 3.94087 15 4.1V9.5M9 16.5V10.1C9 9.94087 9.06321 9.78826 9.17574 9.67574C9.28826 9.56321 9.44087 9.5 9.6 9.5H15" stroke="#80848F" stroke-width="1.5"/>
</svg>
