<svg width="24" height="25" viewBox="0 0 24 25" fill="none" xmlns="http://www.w3.org/2000/svg">
<path d="M5 23.5C5 21.5803 5.7375 19.7393 7.05025 18.3819C8.36301 17.0245 10.1435 16.2619 12 16.2619C13.8565 16.2619 15.637 17.0245 16.9497 18.3819C18.2625 19.7393 19 21.5803 19 23.5H17.25C17.25 22.0603 16.6969 20.6795 15.7123 19.6614C14.7277 18.6434 13.3924 18.0714 12 18.0714C10.6076 18.0714 9.27226 18.6434 8.28769 19.6614C7.30312 20.6795 6.75 22.0603 6.75 23.5H5ZM12 15.3571C9.09937 15.3571 6.75 12.9279 6.75 9.92857C6.75 6.92929 9.09937 4.5 12 4.5C14.9006 4.5 17.25 6.92929 17.25 9.92857C17.25 12.9279 14.9006 15.3571 12 15.3571ZM12 13.5476C13.9338 13.5476 15.5 11.9281 15.5 9.92857C15.5 7.92905 13.9338 6.30952 12 6.30952C10.0662 6.30952 8.5 7.92905 8.5 9.92857C8.5 11.9281 10.0662 13.5476 12 13.5476Z" fill="#80848F"/>
</svg>
