<svg width="24" height="25" viewBox="0 0 24 25" fill="none" xmlns="http://www.w3.org/2000/svg">
<path d="M22.5 10.25H21.4875L18.8831 4.39062C18.7653 4.12553 18.5731 3.90029 18.3298 3.74222C18.0865 3.58414 17.8026 3.5 17.5125 3.5H6.4875C6.19738 3.5 5.91349 3.58414 5.67022 3.74222C5.42695 3.90029 5.23474 4.12553 5.11688 4.39062L2.5125 10.25H1.5C1.30109 10.25 1.11032 10.329 0.96967 10.4697C0.829018 10.6103 0.75 10.8011 0.75 11C0.75 11.1989 0.829018 11.3897 0.96967 11.5303C1.11032 11.671 1.30109 11.75 1.5 11.75H2.25V19.25C2.25 19.6478 2.40804 20.0294 2.68934 20.3107C2.97064 20.592 3.35218 20.75 3.75 20.75H6C6.39782 20.75 6.77936 20.592 7.06066 20.3107C7.34196 20.0294 7.5 19.6478 7.5 19.25V17.75H16.5V19.25C16.5 19.6478 16.658 20.0294 16.9393 20.3107C17.2206 20.592 17.6022 20.75 18 20.75H20.25C20.6478 20.75 21.0294 20.592 21.3107 20.3107C21.592 20.0294 21.75 19.6478 21.75 19.25V11.75H22.5C22.6989 11.75 22.8897 11.671 23.0303 11.5303C23.171 11.3897 23.25 11.1989 23.25 11C23.25 10.8011 23.171 10.6103 23.0303 10.4697C22.8897 10.329 22.6989 10.25 22.5 10.25ZM6.4875 5H17.5125L19.8459 10.25H4.15406L6.4875 5ZM6 19.25H3.75V17.75H6V19.25ZM18 19.25V17.75H20.25V19.25H18ZM20.25 16.25H3.75V11.75H20.25V16.25ZM5.25 14C5.25 13.8011 5.32902 13.6103 5.46967 13.4697C5.61032 13.329 5.80109 13.25 6 13.25H7.5C7.69891 13.25 7.88968 13.329 8.03033 13.4697C8.17098 13.6103 8.25 13.8011 8.25 14C8.25 14.1989 8.17098 14.3897 8.03033 14.5303C7.88968 14.671 7.69891 14.75 7.5 14.75H6C5.80109 14.75 5.61032 14.671 5.46967 14.5303C5.32902 14.3897 5.25 14.1989 5.25 14ZM15.75 14C15.75 13.8011 15.829 13.6103 15.9697 13.4697C16.1103 13.329 16.3011 13.25 16.5 13.25H18C18.1989 13.25 18.3897 13.329 18.5303 13.4697C18.671 13.6103 18.75 13.8011 18.75 14C18.75 14.1989 18.671 14.3897 18.5303 14.5303C18.3897 14.671 18.1989 14.75 18 14.75H16.5C16.3011 14.75 16.1103 14.671 15.9697 14.5303C15.829 14.3897 15.75 14.1989 15.75 14Z" fill="#80848F"/>
</svg>
