<svg width="25" height="24" viewBox="0 0 25 24" fill="none" xmlns="http://www.w3.org/2000/svg">
<g clip-path="url(#clip0_4251_14789)">
<path d="M12.5 17.4482C12.8258 17.4482 13.0991 17.3378 13.3199 17.117C13.5407 16.8962 13.6508 16.6233 13.65 16.2982C13.65 15.9724 13.5396 15.6995 13.3188 15.4794C13.098 15.2594 12.8251 15.149 12.5 15.1482C12.1742 15.1482 11.9012 15.2586 11.6812 15.4794C11.4612 15.7002 11.3508 15.9732 11.35 16.2982C11.35 16.6241 11.4604 16.8974 11.6812 17.1182C11.902 17.339 12.1749 17.449 12.5 17.4482ZM11.35 12.8482H13.65V5.94824H11.35V12.8482ZM12.5 23.1982C10.9092 23.1982 9.41417 22.8962 8.015 22.292C6.61583 21.6879 5.39875 20.8687 4.36375 19.8345C3.32875 18.7995 2.50957 17.5824 1.9062 16.1832C1.30283 14.7841 1.00077 13.2891 1 11.6982C1 10.1074 1.30207 8.61241 1.9062 7.21324C2.51033 5.81407 3.32952 4.59699 4.36375 3.56199C5.39875 2.52699 6.61583 1.70781 8.015 1.10444C9.41417 0.501076 10.9092 0.199009 12.5 0.198242C14.0908 0.198242 15.5858 0.500309 16.985 1.10444C18.3842 1.70858 19.6012 2.52776 20.6362 3.56199C21.6712 4.59699 22.4908 5.81407 23.0949 7.21324C23.6991 8.61241 24.0008 10.1074 24 11.6982C24 13.2891 23.6979 14.7841 23.0938 16.1832C22.4897 17.5824 21.6705 18.7995 20.6362 19.8345C19.6012 20.8695 18.3842 21.6891 16.985 22.2932C15.5858 22.8973 14.0908 23.199 12.5 23.1982ZM12.5 20.8982C15.0683 20.8982 17.2437 20.007 19.0262 18.2245C20.8087 16.442 21.7 14.2666 21.7 11.6982C21.7 9.12991 20.8087 6.95449 19.0262 5.17199C17.2437 3.38949 15.0683 2.49824 12.5 2.49824C9.93167 2.49824 7.75625 3.38949 5.97375 5.17199C4.19125 6.95449 3.3 9.12991 3.3 11.6982C3.3 14.2666 4.19125 16.442 5.97375 18.2245C7.75625 20.007 9.93167 20.8982 12.5 20.8982Z" fill="#18A88C"/>
</g>
<defs>
<clipPath id="clip0_4251_14789">
<rect width="23.6034" height="23.6034" fill="white" transform="translate(0.666992 0.198242)"/>
</clipPath>
</defs>
</svg>
