<svg width="18" height="19" viewBox="0 0 18 19" fill="none" xmlns="http://www.w3.org/2000/svg">
<path d="M9.08445 13.0548C9.28589 13.0548 9.45487 12.9865 9.59138 12.85C9.72789 12.7135 9.7959 12.5448 9.79543 12.3438C9.79543 12.1423 9.72718 11.9736 9.59067 11.8376C9.45416 11.7015 9.28542 11.6333 9.08445 11.6328C8.883 11.6328 8.71426 11.7011 8.57823 11.8376C8.44219 11.9741 8.37394 12.1428 8.37346 12.3438C8.37346 12.5452 8.44172 12.7142 8.57823 12.8507C8.71474 12.9872 8.88348 13.0552 9.08445 13.0548ZM8.37346 10.2108H9.79543V5.94493H8.37346V10.2108ZM9.08445 16.6097C8.10092 16.6097 7.17664 16.4229 6.31161 16.0494C5.44658 15.6759 4.69412 15.1695 4.05424 14.5301C3.41435 13.8902 2.90789 13.1377 2.53486 12.2727C2.16184 11.4077 1.97508 10.4834 1.97461 9.49985C1.97461 8.51632 2.16136 7.59205 2.53486 6.72702C2.90837 5.86199 3.41483 5.10953 4.05424 4.46964C4.69412 3.82976 5.44658 3.3233 6.31161 2.95027C7.17664 2.57724 8.10092 2.39049 9.08445 2.39001C10.068 2.39001 10.9923 2.57677 11.8573 2.95027C12.7223 3.32377 13.4748 3.83023 14.1147 4.46964C14.7545 5.10953 15.2612 5.86199 15.6347 6.72702C16.0082 7.59205 16.1948 8.51632 16.1943 9.49985C16.1943 10.4834 16.0075 11.4077 15.634 12.2727C15.2605 13.1377 14.7541 13.8902 14.1147 14.5301C13.4748 15.1699 12.7223 15.6766 11.8573 16.0501C10.9923 16.4236 10.068 16.6102 9.08445 16.6097ZM9.08445 15.1877C10.6723 15.1877 12.0173 14.6367 13.1193 13.5347C14.2213 12.4327 14.7723 11.0877 14.7723 9.49985C14.7723 7.91199 14.2213 6.56704 13.1193 5.46502C12.0173 4.36299 10.6723 3.81198 9.08445 3.81198C7.49658 3.81198 6.15164 4.36299 5.04961 5.46502C3.94759 6.56704 3.39658 7.91199 3.39658 9.49985C3.39658 11.0877 3.94759 12.4327 5.04961 13.5347C6.15164 14.6367 7.49658 15.1877 9.08445 15.1877Z" fill="#18A88C"/>
</svg>
